<svg xmlns="http://www.w3.org/2000/svg" viewBox="0 0 46.21 56.75"><path d="M38.59 30.15c.08 8.59 7.54 11.45 7.62 11.48-.06.2-1.19 4.07-3.93 8.07-2.37 3.46-4.82 6.9-8.69 6.97-3.8.07-5.02-2.25-9.37-2.25-4.34 0-5.7 2.18-9.3 2.32-3.73.14-6.58-3.74-8.96-7.18-4.88-7.05-8.6-19.91-3.6-28.59 2.48-4.31 6.92-7.04 11.74-7.11 3.67-.07 7.13 2.47 9.37 2.47 2.24 0 6.44-3.05 10.87-2.6 1.85.08 7.04.75 10.38 5.63-.26.16-6.19 3.61-6.13 10.79M31.45 9.06c1.98-2.4 3.32-5.74 2.95-9.06-2.86.12-6.31 1.9-8.36 4.3-1.84 2.12-3.44 5.52-3.01 8.78 3.19.25 6.44-1.62 8.42-4.02" fill="#fff"/></svg>