<svg xmlns="http://www.w3.org/2000/svg" viewBox="521.94 473.06 12.55 11.99"><path d="M528.17 485.05a.73.73 0 0 1-.55-.25c-3.8-4.32-4.64-5.3-4.86-5.57a3.85 3.85 0 0 1-.82-2.37c0-2.09 1.7-3.8 3.8-3.8.93 0 1.8.32 2.48.9.7-.58 1.56-.9 2.46-.9 2.09 0 3.8 1.7 3.8 3.8 0 .91-.32 1.75-.9 2.38l-4.86 5.56a.7.7 0 0 1-.55.25zm-4.24-6.7c.21.25 2.47 2.84 4.24 4.86l4.32-4.94c.34-.37.52-.86.52-1.4 0-1.29-1.04-2.33-2.33-2.33-.73 0-1.42.34-1.9.94-.14.18-.35.27-.58.28-.23 0-.44-.11-.58-.29-.44-.59-1.13-.92-1.89-.92-1.29 0-2.33 1.05-2.33 2.33 0 .68.28 1.17.51 1.47.01-.01.02-.01.02 0z" fill="#d22856"/></svg>