<svg xmlns="http://www.w3.org/2000/svg" viewBox="0 0 146.3 40.37"><path d="M71.87 18.66c0-.71.58-1.29 1.26-1.29h7.18c5.09 0 8.44 2.7 8.44 7.15v.06c0 4.86-4.06 7.37-8.85 7.37h-5.47v6.83c0 .71-.58 1.29-1.29 1.29-.68 0-1.26-.58-1.26-1.29l-.01-20.12zm8.12 10.98c3.73 0 6.18-2 6.18-4.96v-.06c0-3.22-2.41-4.89-6.05-4.89h-5.7v9.92l5.57-.01zM93.6 18.5c0-.71.58-1.29 1.25-1.29.71 0 1.29.58 1.29 1.29v20.28c0 .71-.58 1.29-1.29 1.29-.68 0-1.25-.58-1.25-1.29V18.5zm9.14.03c0-.68.58-1.26 1.26-1.26h.35c.58 0 .93.29 1.29.74l13.68 17.45v-17c0-.68.55-1.26 1.26-1.26.68 0 1.22.58 1.22 1.26v20.35c0 .68-.48 1.19-1.16 1.19h-.13c-.55 0-.94-.32-1.32-.77l-13.98-17.87v17.45c0 .68-.55 1.26-1.26 1.26-.68 0-1.22-.58-1.22-1.26l.01-20.28zm25.43-.03c0-.71.58-1.29 1.26-1.29.71 0 1.29.58 1.29 1.29v12.33l12.85-13.17c.29-.26.58-.45 1-.45.68 0 1.22.61 1.22 1.26 0 .35-.16.64-.42.9l-7.98 7.92 8.56 10.56c.22.29.35.55.35.94 0 .68-.58 1.29-1.29 1.29-.48 0-.81-.26-1.03-.58l-8.4-10.46-4.86 4.86v4.89c0 .71-.58 1.29-1.29 1.29-.68 0-1.26-.58-1.26-1.29V18.5zm-67.71 9.52c0-.01-5.17-21.36-5.17-21.36C54.93 4.3 52.69 0 46.69 0c-.83 0-1.5.67-1.5 1.5s.67 1.5 1.5 1.5c4.86 0 5.58 3.73 5.64 4.14l4.77 19.7h-2.07c-.74-5.93-5.8-10.53-11.93-10.53s-11.19 4.6-11.93 10.53h-1.82c-.74-5.93-5.8-10.53-11.93-10.53S6.23 20.92 5.49 26.84H3.42l4.77-19.7C8.25 6.73 8.97 3 13.83 3c.83 0 1.5-.67 1.5-1.5S14.65 0 13.83 0c-6.01 0-8.24 4.3-8.6 6.65 0 0-5.17 21.36-5.18 21.36-.27 1.11.53 1.83 1.43 1.83H5.5c.74 5.93 5.8 10.53 11.93 10.53s11.19-4.6 11.93-10.53h1.81c.74 5.93 5.8 10.53 11.93 10.53s11.19-4.6 11.93-10.53h4.01c.89 0 1.69-.71 1.42-1.82zm-34.15 1.82c-.71 4.27-4.42 7.53-8.9 7.53s-8.18-3.26-8.9-7.53c-.08-.49-.13-.99-.13-1.5s.05-1.01.13-1.5c.71-4.27 4.42-7.53 8.9-7.53s8.18 3.26 8.9 7.53c.08.49.14.99.14 1.5 0 .52-.05 1.02-.14 1.5zm25.68 0c-.72 4.27-4.42 7.53-8.9 7.53-4.47 0-8.18-3.26-8.9-7.53-.08-.49-.14-.99-.14-1.5s.05-1.01.14-1.5c.72-4.27 4.42-7.53 8.9-7.53s8.18 3.26 8.9 7.53c.08.49.13.99.13 1.5.01.52-.05 1.02-.13 1.5z" fill="#fff"/></svg>