<svg version="1.1" id="Layer_2" xmlns="http://www.w3.org/2000/svg" x="0" y="0" viewBox="0 0 146.3 40.37" xml:space="preserve"><style>.st0{fill:#283645}.st1{fill:#d22856}</style><path class="st0" d="M71.87 18.66c0-.71.58-1.29 1.26-1.29h7.18c5.09 0 8.44 2.7 8.44 7.15v.06c0 4.86-4.06 7.37-8.85 7.37h-5.47v6.82c0 .71-.58 1.29-1.29 1.29-.68 0-1.26-.58-1.26-1.29l-.01-20.11zm8.12 10.98c3.73 0 6.18-2 6.18-4.96v-.06c0-3.22-2.41-4.89-6.05-4.89h-5.7v9.92l5.57-.01zM93.6 18.5c0-.71.58-1.29 1.25-1.29.71 0 1.29.58 1.29 1.29v20.28c0 .71-.58 1.29-1.29 1.29-.68 0-1.25-.58-1.25-1.29V18.5zm9.14.03c0-.68.58-1.26 1.26-1.26h.35c.58 0 .93.29 1.29.74l13.68 17.45v-17c0-.68.55-1.26 1.26-1.26.68 0 1.23.58 1.23 1.26v20.35c0 .68-.48 1.19-1.16 1.19h-.13c-.55 0-.94-.32-1.32-.77l-13.98-17.87v17.45c0 .68-.55 1.26-1.26 1.26-.68 0-1.22-.58-1.22-1.26V18.53zm25.43-.03c0-.71.58-1.29 1.26-1.29.71 0 1.29.58 1.29 1.29v12.33l12.85-13.17c.29-.26.58-.45 1-.45.68 0 1.22.61 1.22 1.26 0 .35-.16.64-.42.9l-7.98 7.92 8.56 10.56c.22.29.35.55.35.94 0 .68-.58 1.29-1.28 1.29-.48 0-.81-.26-1.03-.58l-8.4-10.46-4.86 4.86v4.9c0 .71-.58 1.29-1.29 1.29-.68 0-1.26-.58-1.26-1.29l-.01-20.3z"/><path class="st1" d="M98.5 9.88c-2 0-3.62-1.62-3.62-3.62 0 2-1.62 3.62-3.63 3.62 2 0 3.63 1.62 3.63 3.62-.01-2 1.62-3.62 3.62-3.62zm-55.41 9.43c.25 0 .49.01.73.03a2.495 2.495 0 0 0-2.14-1.22c-.88 0-1.61-.57-1.88-1.35-.73.21-1.43.48-2.09.82.06.02.12.04.19.04 1.1 0 2 .9 2 2 0 .1-.01.19-.03.28 1.01-.39 2.09-.6 3.22-.6z"/><path class="st1" d="M60.46 28.02c0-.01-5.17-21.36-5.17-21.36C54.93 4.3 52.69 0 46.69 0c-.83 0-1.5.67-1.5 1.5s.67 1.5 1.5 1.5c4.86 0 5.58 3.73 5.64 4.14l4.77 19.7h-2.07c-.44-3.56-2.45-6.63-5.31-8.52a2.5 2.5 0 0 0-1.53 2.3c0 .09-.02.17-.03.26 1.99 1.36 3.42 3.49 3.83 5.96.08.49.13.99.13 1.5s-.05 1.01-.13 1.5c-.72 4.27-4.42 7.53-8.9 7.53-4.47 0-8.18-3.26-8.9-7.53-.08-.49-.14-.99-.14-1.5s.05-1.01.14-1.5c.15-.88.43-1.71.81-2.48a1.995 1.995 0 0 1-1.85-1.98c0-.19-.08-.36-.19-.49a11.84 11.84 0 0 0-1.79 4.96h-1.82c-.74-5.93-5.8-10.53-11.93-10.53S6.23 20.92 5.49 26.84H3.42l4.77-19.7C8.25 6.73 8.97 3 13.83 3c.83 0 1.5-.67 1.5-1.5S14.65 0 13.83 0c-6.01 0-8.24 4.3-8.6 6.65 0 0-5.17 21.36-5.18 21.36-.27 1.11.53 1.83 1.43 1.83H5.5c.08.63.21 1.24.39 1.83.06-.11.1-.22.1-.35 0-1.1.9-2 2-2 .17 0 .32.02.48.06-.04-.34-.07-.69-.07-1.04 0-.51.05-1.01.13-1.5.72-4.27 4.42-7.53 8.9-7.53s8.18 3.26 8.9 7.53c.08.49.14.99.14 1.5s-.05 1.01-.14 1.5a9.023 9.023 0 0 1-14.29 5.74c-.35.3-.8.49-1.3.49-.41 0-.75.34-.75.75 0 .29-.06.56-.18.81 2.07 1.71 4.72 2.74 7.61 2.74 6.13 0 11.19-4.6 11.93-10.53h1.81c.74 5.93 5.8 10.53 11.93 10.53s11.19-4.6 11.93-10.53H59c.01 0 .02-.01.04-.01.89.01 1.69-.7 1.42-1.81z"/><path class="st0" d="M50.69 16.13a4.5 4.5 0 0 1-4.5-4.5 4.5 4.5 0 0 1-4.5 4.5 4.5 4.5 0 0 1 4.5 4.5c0-2.49 2.01-4.5 4.5-4.5zm-12.79 3.5c-1.52 0-2.75-1.23-2.75-2.75 0 1.52-1.23 2.75-2.75 2.75 1.52 0 2.75 1.23 2.75 2.75 0-1.52 1.24-2.75 2.75-2.75zM10.73 34.07c-1.52 0-2.75-1.23-2.75-2.75 0 1.52-1.23 2.75-2.75 2.75 1.52 0 2.75 1.23 2.75 2.75 0-1.52 1.23-2.75 2.75-2.75z"/></svg>