<svg xmlns="http://www.w3.org/2000/svg" viewBox="0 0 74.43 22.86"><path d="M0 1.45C0 .74.58.16 1.26.16h7.18c5.09 0 8.44 2.7 8.44 7.15v.06c0 4.86-4.06 7.37-8.85 7.37H2.54v6.83c0 .71-.58 1.29-1.29 1.29-.67 0-1.25-.58-1.25-1.29V1.45zm8.11 10.98c3.73 0 6.18-2 6.18-4.96v-.06c0-3.22-2.41-4.89-6.05-4.89h-5.7v9.92h5.57zM21.73 1.29c0-.71.58-1.29 1.25-1.29.71 0 1.29.58 1.29 1.29v20.28c0 .71-.58 1.29-1.29 1.29-.68 0-1.25-.58-1.25-1.29V1.29zm9.14.03c0-.68.58-1.26 1.26-1.26h.35c.58 0 .93.29 1.29.74l13.68 17.45v-17C47.45.58 48 0 48.71 0c.68 0 1.22.58 1.22 1.26V21.6c0 .68-.48 1.19-1.16 1.19h-.13c-.55 0-.93-.32-1.32-.77L33.35 4.15V21.6c0 .68-.55 1.26-1.26 1.26-.68 0-1.22-.58-1.22-1.26V1.32zm25.43-.03c0-.71.58-1.29 1.26-1.29.71 0 1.29.58 1.29 1.29v12.33L71.69.45c.29-.26.58-.45 1-.45.68 0 1.22.61 1.22 1.26 0 .35-.16.64-.42.9l-7.98 7.92 8.56 10.56c.22.29.35.55.35.93 0 .68-.58 1.29-1.29 1.29-.48 0-.81-.26-1.03-.58l-8.4-10.46-4.86 4.86v4.89c0 .71-.58 1.29-1.29 1.29-.68 0-1.26-.58-1.26-1.29l.01-20.28z" fill="#fff"/></svg>