<svg version="1.1" id="Layer_1" xmlns="http://www.w3.org/2000/svg" x="0" y="0" viewBox="0 0 49.95 24.01" xml:space="preserve"><style>.st0{fill:#fff}</style><g id="miu"><g id="editor_list_view_hambuger_menu_glyph"><path id="path-1" class="st0" d="M1.14 0C.51 0 0 .43 0 1.01v1.98C0 3.55.49 4 1.14 4h47.67c.63 0 1.14-.43 1.14-1.01V1.01c0-.56-.49-1.01-1.14-1.01H1.14zm0 10C.51 10 0 10.43 0 11.01v1.98C0 13.55.49 14 1.14 14h47.67c.63 0 1.14-.43 1.14-1.01v-1.98c0-.56-.49-1.01-1.14-1.01H1.14zm0 10.01c-.63 0-1.14.42-1.14 1.01V23c0 .56.49 1.01 1.14 1.01h47.67c.63 0 1.14-.43 1.14-1.01v-1.98c0-.56-.49-1.01-1.14-1.01H1.14z"/><path id="path-1_1_" class="st0" d="M1.14 0C.51 0 0 .43 0 1.01v1.98C0 3.55.49 4 1.14 4h47.67c.63 0 1.14-.43 1.14-1.01V1.01c0-.56-.49-1.01-1.14-1.01H1.14zm0 10C.51 10 0 10.43 0 11.01v1.98C0 13.55.49 14 1.14 14h47.67c.63 0 1.14-.43 1.14-1.01v-1.98c0-.56-.49-1.01-1.14-1.01H1.14zm0 10.01c-.63 0-1.14.42-1.14 1.01V23c0 .56.49 1.01 1.14 1.01h47.67c.63 0 1.14-.43 1.14-1.01v-1.98c0-.56-.49-1.01-1.14-1.01H1.14z"/></g></g></svg>