<?xml version="1.0" encoding="utf-8"?>
<!-- Generator: Adobe Illustrator 23.0.3, SVG Export Plug-In . SVG Version: 6.00 Build 0)  -->
<svg version="1.1" id="Layer_1" xmlns="http://www.w3.org/2000/svg" xmlns:xlink="http://www.w3.org/1999/xlink" x="0px" y="0px"
	 viewBox="0 0 49.95 24.01" style="enable-background:new 0 0 49.95 24.01;" xml:space="preserve">
<style type="text/css">
	.st0{fill:#FFFFFF;}
</style>
<g id="miu">
	<g id="editor_list_view_hambuger_menu_glyph">
		<g>
			<path id="path-1" class="st0" d="M1.14,0C0.51,0,0,0.43,0,1.01v1.98C0,3.55,0.49,4,1.14,4h47.67c0.63,0,1.14-0.43,1.14-1.01V1.01
				c0-0.56-0.49-1.01-1.14-1.01H1.14z M1.14,10C0.51,10,0,10.43,0,11.01v1.98C0,13.55,0.49,14,1.14,14h47.67
				c0.63,0,1.14-0.43,1.14-1.01v-1.98c0-0.56-0.49-1.01-1.14-1.01H1.14z M1.14,20.01C0.51,20.01,0,20.43,0,21.02V23
				c0,0.56,0.49,1.01,1.14,1.01h47.67c0.63,0,1.14-0.43,1.14-1.01v-1.98c0-0.56-0.49-1.01-1.14-1.01H1.14z"/>
		</g>
		<g>
			<path id="path-1_1_" class="st0" d="M1.14,0C0.51,0,0,0.43,0,1.01v1.98C0,3.55,0.49,4,1.14,4h47.67c0.63,0,1.14-0.43,1.14-1.01
				V1.01c0-0.56-0.49-1.01-1.14-1.01H1.14z M1.14,10C0.51,10,0,10.43,0,11.01v1.98C0,13.55,0.49,14,1.14,14h47.67
				c0.63,0,1.14-0.43,1.14-1.01v-1.98c0-0.56-0.49-1.01-1.14-1.01H1.14z M1.14,20.01C0.51,20.01,0,20.43,0,21.02V23
				c0,0.56,0.49,1.01,1.14,1.01h47.67c0.63,0,1.14-0.43,1.14-1.01v-1.98c0-0.56-0.49-1.01-1.14-1.01H1.14z"/>
		</g>
	</g>
</g>
</svg>
