<?xml version="1.0" encoding="utf-8"?>
<!-- Generator: Adobe Illustrator 23.0.3, SVG Export Plug-In . SVG Version: 6.00 Build 0)  -->
<svg version="1.1" id="Layer_1" xmlns="http://www.w3.org/2000/svg" xmlns:xlink="http://www.w3.org/1999/xlink" x="0px" y="0px"
	 viewBox="0 0 23.87 23.87" style="enable-background:new 0 0 23.87 23.87;" xml:space="preserve">
<style type="text/css">
	.st0{fill:#FFFFFF;}
</style>
<path class="st0" d="M15.09,11.93l8.56-8.56c0.29-0.29,0.29-0.77,0-1.06l-2.09-2.09C21.41,0.08,21.22,0,21.02,0
	c-0.2,0-0.39,0.08-0.53,0.22l-8.56,8.56L3.37,0.22c-0.28-0.28-0.78-0.28-1.06,0L0.22,2.31c-0.29,0.29-0.29,0.77,0,1.06l8.56,8.56
	l-8.56,8.56c-0.29,0.29-0.29,0.77,0,1.06l2.09,2.09c0.14,0.14,0.33,0.22,0.53,0.22c0.2,0,0.39-0.08,0.53-0.22l8.56-8.56l8.56,8.56
	c0.14,0.14,0.33,0.22,0.53,0.22c0.2,0,0.39-0.08,0.53-0.22l2.09-2.09c0.29-0.29,0.29-0.77,0-1.06L15.09,11.93z"/>
</svg>
