<svg data-name="Layer 1" xmlns="http://www.w3.org/2000/svg" viewBox="0 0 19.7 19.7"><path d="M9.85 0c-3.51 0-7 .63-8.3 1.88A6.82 6.82 0 0 0 0 5.91a1.59 1.59 0 0 0 0 .17.82.82 0 0 0 .82.82L4 6.64h.08a.81.81 0 0 0 .8-.82V4.19a.9.9 0 0 1 .9-.91h8a.91.91 0 0 1 .91.91V5.8a.82.82 0 0 0 .8.82h.09l3.22.26a.82.82 0 0 0 .82-.82 1.59 1.59 0 0 0 0-.17 6.89 6.89 0 0 0-1.53-4C16.87.63 13.36 0 9.85 0zm0 10.67a1.64 1.64 0 1 0 1.64 1.64 1.63 1.63 0 0 0-1.64-1.64zM8.62 7V6a1 1 0 1 0-2 0v1L1 12.89a2 2 0 0 0-.62 1.47V16a1.65 1.65 0 0 0 1.64 1.65h.41v1a1.025 1.025 0 1 0 2.05 0v-1h10.7v1a1.025 1.025 0 1 0 2.05 0v-1h.41A1.64 1.64 0 0 0 19.28 16v-1.64a2 2 0 0 0-.61-1.47L13.13 7V6a1.025 1.025 0 1 0-2.05 0v1zm1.23 2a3.28 3.28 0 1 1-3.28 3.28A3.28 3.28 0 0 1 9.85 9z" fill="#d22856"/></svg>